%TF.GenerationSoftware,KiCad,Pcbnew,9.0.0*%
%TF.CreationDate,2025-03-11T10:13:58-07:00*%
%TF.ProjectId,360LPNeckWithPinHeaders,3336304c-504e-4656-936b-576974685069,rev?*%
%TF.SameCoordinates,Original*%
%TF.FileFunction,Legend,Bot*%
%TF.FilePolarity,Positive*%
%FSLAX46Y46*%
G04 Gerber Fmt 4.6, Leading zero omitted, Abs format (unit mm)*
G04 Created by KiCad (PCBNEW 9.0.0) date 2025-03-11 10:13:58*
%MOMM*%
%LPD*%
G01*
G04 APERTURE LIST*
%ADD10C,0.100000*%
G04 APERTURE END LIST*
D10*
X29975312Y-20803104D02*
X29518169Y-20803104D01*
X29746741Y-20803104D02*
X29746741Y-21603104D01*
X29746741Y-21603104D02*
X29670550Y-21488819D01*
X29670550Y-21488819D02*
X29594360Y-21412628D01*
X29594360Y-21412628D02*
X29518169Y-21374533D01*
X34010107Y-27177068D02*
X33972012Y-27062782D01*
X33972012Y-27062782D02*
X33933916Y-27024687D01*
X33933916Y-27024687D02*
X33857726Y-26986591D01*
X33857726Y-26986591D02*
X33743440Y-26986591D01*
X33743440Y-26986591D02*
X33667250Y-27024687D01*
X33667250Y-27024687D02*
X33629155Y-27062782D01*
X33629155Y-27062782D02*
X33591059Y-27138972D01*
X33591059Y-27138972D02*
X33591059Y-27443734D01*
X33591059Y-27443734D02*
X34391059Y-27443734D01*
X34391059Y-27443734D02*
X34391059Y-27177068D01*
X34391059Y-27177068D02*
X34352964Y-27100877D01*
X34352964Y-27100877D02*
X34314869Y-27062782D01*
X34314869Y-27062782D02*
X34238678Y-27024687D01*
X34238678Y-27024687D02*
X34162488Y-27024687D01*
X34162488Y-27024687D02*
X34086297Y-27062782D01*
X34086297Y-27062782D02*
X34048202Y-27100877D01*
X34048202Y-27100877D02*
X34010107Y-27177068D01*
X34010107Y-27177068D02*
X34010107Y-27443734D01*
X33591059Y-26300877D02*
X34010107Y-26300877D01*
X34010107Y-26300877D02*
X34086297Y-26338972D01*
X34086297Y-26338972D02*
X34124393Y-26415163D01*
X34124393Y-26415163D02*
X34124393Y-26567544D01*
X34124393Y-26567544D02*
X34086297Y-26643734D01*
X33629155Y-26300877D02*
X33591059Y-26377068D01*
X33591059Y-26377068D02*
X33591059Y-26567544D01*
X33591059Y-26567544D02*
X33629155Y-26643734D01*
X33629155Y-26643734D02*
X33705345Y-26681830D01*
X33705345Y-26681830D02*
X33781535Y-26681830D01*
X33781535Y-26681830D02*
X33857726Y-26643734D01*
X33857726Y-26643734D02*
X33895821Y-26567544D01*
X33895821Y-26567544D02*
X33895821Y-26377068D01*
X33895821Y-26377068D02*
X33933916Y-26300877D01*
X33629155Y-25577067D02*
X33591059Y-25653258D01*
X33591059Y-25653258D02*
X33591059Y-25805639D01*
X33591059Y-25805639D02*
X33629155Y-25881829D01*
X33629155Y-25881829D02*
X33667250Y-25919924D01*
X33667250Y-25919924D02*
X33743440Y-25958020D01*
X33743440Y-25958020D02*
X33972012Y-25958020D01*
X33972012Y-25958020D02*
X34048202Y-25919924D01*
X34048202Y-25919924D02*
X34086297Y-25881829D01*
X34086297Y-25881829D02*
X34124393Y-25805639D01*
X34124393Y-25805639D02*
X34124393Y-25653258D01*
X34124393Y-25653258D02*
X34086297Y-25577067D01*
X33591059Y-25234210D02*
X34391059Y-25234210D01*
X33895821Y-25158020D02*
X33591059Y-24929448D01*
X34124393Y-24929448D02*
X33819631Y-25234210D01*
X34429155Y-24015163D02*
X33400583Y-24700877D01*
X32722152Y-27177068D02*
X32722152Y-27443734D01*
X32303104Y-27443734D02*
X33103104Y-27443734D01*
X33103104Y-27443734D02*
X33103104Y-27062782D01*
X32303104Y-26415163D02*
X32722152Y-26415163D01*
X32722152Y-26415163D02*
X32798342Y-26453258D01*
X32798342Y-26453258D02*
X32836438Y-26529449D01*
X32836438Y-26529449D02*
X32836438Y-26681830D01*
X32836438Y-26681830D02*
X32798342Y-26758020D01*
X32341200Y-26415163D02*
X32303104Y-26491354D01*
X32303104Y-26491354D02*
X32303104Y-26681830D01*
X32303104Y-26681830D02*
X32341200Y-26758020D01*
X32341200Y-26758020D02*
X32417390Y-26796116D01*
X32417390Y-26796116D02*
X32493580Y-26796116D01*
X32493580Y-26796116D02*
X32569771Y-26758020D01*
X32569771Y-26758020D02*
X32607866Y-26681830D01*
X32607866Y-26681830D02*
X32607866Y-26491354D01*
X32607866Y-26491354D02*
X32645961Y-26415163D01*
X32341200Y-25691353D02*
X32303104Y-25767544D01*
X32303104Y-25767544D02*
X32303104Y-25919925D01*
X32303104Y-25919925D02*
X32341200Y-25996115D01*
X32341200Y-25996115D02*
X32379295Y-26034210D01*
X32379295Y-26034210D02*
X32455485Y-26072306D01*
X32455485Y-26072306D02*
X32684057Y-26072306D01*
X32684057Y-26072306D02*
X32760247Y-26034210D01*
X32760247Y-26034210D02*
X32798342Y-25996115D01*
X32798342Y-25996115D02*
X32836438Y-25919925D01*
X32836438Y-25919925D02*
X32836438Y-25767544D01*
X32836438Y-25767544D02*
X32798342Y-25691353D01*
X32303104Y-25348496D02*
X32836438Y-25348496D01*
X33103104Y-25348496D02*
X33065009Y-25386592D01*
X33065009Y-25386592D02*
X33026914Y-25348496D01*
X33026914Y-25348496D02*
X33065009Y-25310401D01*
X33065009Y-25310401D02*
X33103104Y-25348496D01*
X33103104Y-25348496D02*
X33026914Y-25348496D01*
X32836438Y-24967544D02*
X32303104Y-24967544D01*
X32760247Y-24967544D02*
X32798342Y-24929449D01*
X32798342Y-24929449D02*
X32836438Y-24853259D01*
X32836438Y-24853259D02*
X32836438Y-24738973D01*
X32836438Y-24738973D02*
X32798342Y-24662782D01*
X32798342Y-24662782D02*
X32722152Y-24624687D01*
X32722152Y-24624687D02*
X32303104Y-24624687D01*
X32836438Y-23900877D02*
X32188819Y-23900877D01*
X32188819Y-23900877D02*
X32112628Y-23938972D01*
X32112628Y-23938972D02*
X32074533Y-23977068D01*
X32074533Y-23977068D02*
X32036438Y-24053258D01*
X32036438Y-24053258D02*
X32036438Y-24167544D01*
X32036438Y-24167544D02*
X32074533Y-24243734D01*
X32341200Y-23900877D02*
X32303104Y-23977068D01*
X32303104Y-23977068D02*
X32303104Y-24129449D01*
X32303104Y-24129449D02*
X32341200Y-24205639D01*
X32341200Y-24205639D02*
X32379295Y-24243734D01*
X32379295Y-24243734D02*
X32455485Y-24281830D01*
X32455485Y-24281830D02*
X32684057Y-24281830D01*
X32684057Y-24281830D02*
X32760247Y-24243734D01*
X32760247Y-24243734D02*
X32798342Y-24205639D01*
X32798342Y-24205639D02*
X32836438Y-24129449D01*
X32836438Y-24129449D02*
X32836438Y-23977068D01*
X32836438Y-23977068D02*
X32798342Y-23900877D01*
X32303104Y-22910400D02*
X33103104Y-22910400D01*
X33103104Y-22910400D02*
X32303104Y-22453257D01*
X32303104Y-22453257D02*
X33103104Y-22453257D01*
X32341200Y-21767543D02*
X32303104Y-21843734D01*
X32303104Y-21843734D02*
X32303104Y-21996115D01*
X32303104Y-21996115D02*
X32341200Y-22072305D01*
X32341200Y-22072305D02*
X32417390Y-22110401D01*
X32417390Y-22110401D02*
X32722152Y-22110401D01*
X32722152Y-22110401D02*
X32798342Y-22072305D01*
X32798342Y-22072305D02*
X32836438Y-21996115D01*
X32836438Y-21996115D02*
X32836438Y-21843734D01*
X32836438Y-21843734D02*
X32798342Y-21767543D01*
X32798342Y-21767543D02*
X32722152Y-21729448D01*
X32722152Y-21729448D02*
X32645961Y-21729448D01*
X32645961Y-21729448D02*
X32569771Y-22110401D01*
X32341200Y-21043734D02*
X32303104Y-21119925D01*
X32303104Y-21119925D02*
X32303104Y-21272306D01*
X32303104Y-21272306D02*
X32341200Y-21348496D01*
X32341200Y-21348496D02*
X32379295Y-21386591D01*
X32379295Y-21386591D02*
X32455485Y-21424687D01*
X32455485Y-21424687D02*
X32684057Y-21424687D01*
X32684057Y-21424687D02*
X32760247Y-21386591D01*
X32760247Y-21386591D02*
X32798342Y-21348496D01*
X32798342Y-21348496D02*
X32836438Y-21272306D01*
X32836438Y-21272306D02*
X32836438Y-21119925D01*
X32836438Y-21119925D02*
X32798342Y-21043734D01*
X32303104Y-20700877D02*
X33103104Y-20700877D01*
X32607866Y-20624687D02*
X32303104Y-20396115D01*
X32836438Y-20396115D02*
X32531676Y-20700877D01*
X28708646Y-18277580D02*
X29327693Y-18277580D01*
X29327693Y-18277580D02*
X28994360Y-17896628D01*
X28994360Y-17896628D02*
X29137217Y-17896628D01*
X29137217Y-17896628D02*
X29232455Y-17849009D01*
X29232455Y-17849009D02*
X29280074Y-17801390D01*
X29280074Y-17801390D02*
X29327693Y-17706152D01*
X29327693Y-17706152D02*
X29327693Y-17468057D01*
X29327693Y-17468057D02*
X29280074Y-17372819D01*
X29280074Y-17372819D02*
X29232455Y-17325200D01*
X29232455Y-17325200D02*
X29137217Y-17277580D01*
X29137217Y-17277580D02*
X28851503Y-17277580D01*
X28851503Y-17277580D02*
X28756265Y-17325200D01*
X28756265Y-17325200D02*
X28708646Y-17372819D01*
X33327693Y-17277580D02*
X32756265Y-17277580D01*
X33041979Y-17277580D02*
X33041979Y-18277580D01*
X33041979Y-18277580D02*
X32946741Y-18134723D01*
X32946741Y-18134723D02*
X32851503Y-18039485D01*
X32851503Y-18039485D02*
X32756265Y-17991866D01*
X20808646Y-18277580D02*
X21475312Y-18277580D01*
X21475312Y-18277580D02*
X21046741Y-17277580D01*
X18327693Y-18546628D02*
X18303884Y-18594247D01*
X18303884Y-18594247D02*
X18256265Y-18737104D01*
X18256265Y-18737104D02*
X18232455Y-18832342D01*
X18232455Y-18832342D02*
X18208646Y-18975200D01*
X18208646Y-18975200D02*
X18184836Y-19213295D01*
X18184836Y-19213295D02*
X18184836Y-19403771D01*
X18184836Y-19403771D02*
X18208646Y-19641866D01*
X18208646Y-19641866D02*
X18232455Y-19784723D01*
X18232455Y-19784723D02*
X18256265Y-19879961D01*
X18256265Y-19879961D02*
X18303884Y-20022819D01*
X18303884Y-20022819D02*
X18327693Y-20070438D01*
X18803883Y-18927580D02*
X18637217Y-19403771D01*
X18518169Y-18927580D02*
X18518169Y-19927580D01*
X18518169Y-19927580D02*
X18708645Y-19927580D01*
X18708645Y-19927580D02*
X18756264Y-19879961D01*
X18756264Y-19879961D02*
X18780074Y-19832342D01*
X18780074Y-19832342D02*
X18803883Y-19737104D01*
X18803883Y-19737104D02*
X18803883Y-19594247D01*
X18803883Y-19594247D02*
X18780074Y-19499009D01*
X18780074Y-19499009D02*
X18756264Y-19451390D01*
X18756264Y-19451390D02*
X18708645Y-19403771D01*
X18708645Y-19403771D02*
X18518169Y-19403771D01*
X19208645Y-18975200D02*
X19161026Y-18927580D01*
X19161026Y-18927580D02*
X19065788Y-18927580D01*
X19065788Y-18927580D02*
X19018169Y-18975200D01*
X19018169Y-18975200D02*
X18994360Y-19070438D01*
X18994360Y-19070438D02*
X18994360Y-19451390D01*
X18994360Y-19451390D02*
X19018169Y-19546628D01*
X19018169Y-19546628D02*
X19065788Y-19594247D01*
X19065788Y-19594247D02*
X19161026Y-19594247D01*
X19161026Y-19594247D02*
X19208645Y-19546628D01*
X19208645Y-19546628D02*
X19232455Y-19451390D01*
X19232455Y-19451390D02*
X19232455Y-19356152D01*
X19232455Y-19356152D02*
X18994360Y-19260914D01*
X19661026Y-18927580D02*
X19661026Y-19927580D01*
X19661026Y-18975200D02*
X19613407Y-18927580D01*
X19613407Y-18927580D02*
X19518169Y-18927580D01*
X19518169Y-18927580D02*
X19470550Y-18975200D01*
X19470550Y-18975200D02*
X19446740Y-19022819D01*
X19446740Y-19022819D02*
X19422931Y-19118057D01*
X19422931Y-19118057D02*
X19422931Y-19403771D01*
X19422931Y-19403771D02*
X19446740Y-19499009D01*
X19446740Y-19499009D02*
X19470550Y-19546628D01*
X19470550Y-19546628D02*
X19518169Y-19594247D01*
X19518169Y-19594247D02*
X19613407Y-19594247D01*
X19613407Y-19594247D02*
X19661026Y-19546628D01*
X19851502Y-18546628D02*
X19875312Y-18594247D01*
X19875312Y-18594247D02*
X19922931Y-18737104D01*
X19922931Y-18737104D02*
X19946740Y-18832342D01*
X19946740Y-18832342D02*
X19970550Y-18975200D01*
X19970550Y-18975200D02*
X19994359Y-19213295D01*
X19994359Y-19213295D02*
X19994359Y-19403771D01*
X19994359Y-19403771D02*
X19970550Y-19641866D01*
X19970550Y-19641866D02*
X19946740Y-19784723D01*
X19946740Y-19784723D02*
X19922931Y-19879961D01*
X19922931Y-19879961D02*
X19875312Y-20022819D01*
X19875312Y-20022819D02*
X19851502Y-20070438D01*
X21680074Y-21603104D02*
X22213408Y-21603104D01*
X22213408Y-21603104D02*
X21870550Y-20803104D01*
X30756265Y-18182342D02*
X30803884Y-18229961D01*
X30803884Y-18229961D02*
X30899122Y-18277580D01*
X30899122Y-18277580D02*
X31137217Y-18277580D01*
X31137217Y-18277580D02*
X31232455Y-18229961D01*
X31232455Y-18229961D02*
X31280074Y-18182342D01*
X31280074Y-18182342D02*
X31327693Y-18087104D01*
X31327693Y-18087104D02*
X31327693Y-17991866D01*
X31327693Y-17991866D02*
X31280074Y-17849009D01*
X31280074Y-17849009D02*
X30708646Y-17277580D01*
X30708646Y-17277580D02*
X31327693Y-17277580D01*
X18946741Y-17849009D02*
X18851503Y-17896628D01*
X18851503Y-17896628D02*
X18803884Y-17944247D01*
X18803884Y-17944247D02*
X18756265Y-18039485D01*
X18756265Y-18039485D02*
X18756265Y-18087104D01*
X18756265Y-18087104D02*
X18803884Y-18182342D01*
X18803884Y-18182342D02*
X18851503Y-18229961D01*
X18851503Y-18229961D02*
X18946741Y-18277580D01*
X18946741Y-18277580D02*
X19137217Y-18277580D01*
X19137217Y-18277580D02*
X19232455Y-18229961D01*
X19232455Y-18229961D02*
X19280074Y-18182342D01*
X19280074Y-18182342D02*
X19327693Y-18087104D01*
X19327693Y-18087104D02*
X19327693Y-18039485D01*
X19327693Y-18039485D02*
X19280074Y-17944247D01*
X19280074Y-17944247D02*
X19232455Y-17896628D01*
X19232455Y-17896628D02*
X19137217Y-17849009D01*
X19137217Y-17849009D02*
X18946741Y-17849009D01*
X18946741Y-17849009D02*
X18851503Y-17801390D01*
X18851503Y-17801390D02*
X18803884Y-17753771D01*
X18803884Y-17753771D02*
X18756265Y-17658533D01*
X18756265Y-17658533D02*
X18756265Y-17468057D01*
X18756265Y-17468057D02*
X18803884Y-17372819D01*
X18803884Y-17372819D02*
X18851503Y-17325200D01*
X18851503Y-17325200D02*
X18946741Y-17277580D01*
X18946741Y-17277580D02*
X19137217Y-17277580D01*
X19137217Y-17277580D02*
X19232455Y-17325200D01*
X19232455Y-17325200D02*
X19280074Y-17372819D01*
X19280074Y-17372819D02*
X19327693Y-17468057D01*
X19327693Y-17468057D02*
X19327693Y-17658533D01*
X19327693Y-17658533D02*
X19280074Y-17753771D01*
X19280074Y-17753771D02*
X19232455Y-17801390D01*
X19232455Y-17801390D02*
X19137217Y-17849009D01*
X21970550Y-27260247D02*
X21894360Y-27298342D01*
X21894360Y-27298342D02*
X21856265Y-27336438D01*
X21856265Y-27336438D02*
X21818169Y-27412628D01*
X21818169Y-27412628D02*
X21818169Y-27450723D01*
X21818169Y-27450723D02*
X21856265Y-27526914D01*
X21856265Y-27526914D02*
X21894360Y-27565009D01*
X21894360Y-27565009D02*
X21970550Y-27603104D01*
X21970550Y-27603104D02*
X22122931Y-27603104D01*
X22122931Y-27603104D02*
X22199122Y-27565009D01*
X22199122Y-27565009D02*
X22237217Y-27526914D01*
X22237217Y-27526914D02*
X22275312Y-27450723D01*
X22275312Y-27450723D02*
X22275312Y-27412628D01*
X22275312Y-27412628D02*
X22237217Y-27336438D01*
X22237217Y-27336438D02*
X22199122Y-27298342D01*
X22199122Y-27298342D02*
X22122931Y-27260247D01*
X22122931Y-27260247D02*
X21970550Y-27260247D01*
X21970550Y-27260247D02*
X21894360Y-27222152D01*
X21894360Y-27222152D02*
X21856265Y-27184057D01*
X21856265Y-27184057D02*
X21818169Y-27107866D01*
X21818169Y-27107866D02*
X21818169Y-26955485D01*
X21818169Y-26955485D02*
X21856265Y-26879295D01*
X21856265Y-26879295D02*
X21894360Y-26841200D01*
X21894360Y-26841200D02*
X21970550Y-26803104D01*
X21970550Y-26803104D02*
X22122931Y-26803104D01*
X22122931Y-26803104D02*
X22199122Y-26841200D01*
X22199122Y-26841200D02*
X22237217Y-26879295D01*
X22237217Y-26879295D02*
X22275312Y-26955485D01*
X22275312Y-26955485D02*
X22275312Y-27107866D01*
X22275312Y-27107866D02*
X22237217Y-27184057D01*
X22237217Y-27184057D02*
X22199122Y-27222152D01*
X22199122Y-27222152D02*
X22122931Y-27260247D01*
X23332455Y-18277580D02*
X23141979Y-18277580D01*
X23141979Y-18277580D02*
X23046741Y-18229961D01*
X23046741Y-18229961D02*
X22999122Y-18182342D01*
X22999122Y-18182342D02*
X22903884Y-18039485D01*
X22903884Y-18039485D02*
X22856265Y-17849009D01*
X22856265Y-17849009D02*
X22856265Y-17468057D01*
X22856265Y-17468057D02*
X22903884Y-17372819D01*
X22903884Y-17372819D02*
X22951503Y-17325200D01*
X22951503Y-17325200D02*
X23046741Y-17277580D01*
X23046741Y-17277580D02*
X23237217Y-17277580D01*
X23237217Y-17277580D02*
X23332455Y-17325200D01*
X23332455Y-17325200D02*
X23380074Y-17372819D01*
X23380074Y-17372819D02*
X23427693Y-17468057D01*
X23427693Y-17468057D02*
X23427693Y-17706152D01*
X23427693Y-17706152D02*
X23380074Y-17801390D01*
X23380074Y-17801390D02*
X23332455Y-17849009D01*
X23332455Y-17849009D02*
X23237217Y-17896628D01*
X23237217Y-17896628D02*
X23046741Y-17896628D01*
X23046741Y-17896628D02*
X22951503Y-17849009D01*
X22951503Y-17849009D02*
X22903884Y-17801390D01*
X22903884Y-17801390D02*
X22856265Y-17706152D01*
X29418169Y-27526914D02*
X29456265Y-27565009D01*
X29456265Y-27565009D02*
X29532455Y-27603104D01*
X29532455Y-27603104D02*
X29722931Y-27603104D01*
X29722931Y-27603104D02*
X29799122Y-27565009D01*
X29799122Y-27565009D02*
X29837217Y-27526914D01*
X29837217Y-27526914D02*
X29875312Y-27450723D01*
X29875312Y-27450723D02*
X29875312Y-27374533D01*
X29875312Y-27374533D02*
X29837217Y-27260247D01*
X29837217Y-27260247D02*
X29380074Y-26803104D01*
X29380074Y-26803104D02*
X29875312Y-26803104D01*
X27232455Y-17944247D02*
X27232455Y-17277580D01*
X26994360Y-18325200D02*
X26756265Y-17610914D01*
X26756265Y-17610914D02*
X27375312Y-17610914D01*
X25280074Y-18277580D02*
X24803884Y-18277580D01*
X24803884Y-18277580D02*
X24756265Y-17801390D01*
X24756265Y-17801390D02*
X24803884Y-17849009D01*
X24803884Y-17849009D02*
X24899122Y-17896628D01*
X24899122Y-17896628D02*
X25137217Y-17896628D01*
X25137217Y-17896628D02*
X25232455Y-17849009D01*
X25232455Y-17849009D02*
X25280074Y-17801390D01*
X25280074Y-17801390D02*
X25327693Y-17706152D01*
X25327693Y-17706152D02*
X25327693Y-17468057D01*
X25327693Y-17468057D02*
X25280074Y-17372819D01*
X25280074Y-17372819D02*
X25232455Y-17325200D01*
X25232455Y-17325200D02*
X25137217Y-17277580D01*
X25137217Y-17277580D02*
X24899122Y-17277580D01*
X24899122Y-17277580D02*
X24803884Y-17325200D01*
X24803884Y-17325200D02*
X24756265Y-17372819D01*
M02*
