M48
; DRILL file {KiCad 9.0.0} date 2025-03-11T10:13:57-0700
; FORMAT={-:-/ absolute / inch / decimal}
; #@! TF.CreationDate,2025-03-11T10:13:57-07:00
; #@! TF.GenerationSoftware,Kicad,Pcbnew,9.0.0
; #@! TF.FileFunction,Plated,1,2,PTH
FMAT,2
INCH
; #@! TA.AperFunction,Plated,PTH,ComponentDrill
T1C0.0295
; #@! TA.AperFunction,Plated,PTH,ComponentDrill
T2C0.0394
%
G90
G05
T2
X0.8661Y-0.9055
X0.8661Y-1.0055
X0.9661Y-0.9055
X0.9661Y-1.0055
X1.0661Y-0.9055
X1.0661Y-1.0055
X1.1661Y-0.9055
X1.1661Y-1.0055
T1
G00X0.748Y-0.6004
M15
G01X0.748Y-0.6201
M16
G05
G00X0.8268Y-0.6004
M15
G01X0.8268Y-0.6201
M16
G05
G00X0.9055Y-0.6004
M15
G01X0.9055Y-0.6201
M16
G05
G00X0.9843Y-0.6004
M15
G01X0.9843Y-0.6201
M16
G05
G00X1.063Y-0.6004
M15
G01X1.063Y-0.6201
M16
G05
G00X1.1417Y-0.6004
M15
G01X1.1417Y-0.6201
M16
G05
G00X1.2205Y-0.6004
M15
G01X1.2205Y-0.6201
M16
G05
G00X1.2992Y-0.6004
M15
G01X1.2992Y-0.6201
M16
G05
M30
