%TF.GenerationSoftware,KiCad,Pcbnew,9.0.0*%
%TF.CreationDate,2025-03-11T10:13:07-07:00*%
%TF.ProjectId,360LPNeckfromBodyWithPinHeaders,3336304c-504e-4656-936b-66726f6d426f,rev?*%
%TF.SameCoordinates,Original*%
%TF.FileFunction,Legend,Top*%
%TF.FilePolarity,Positive*%
%FSLAX46Y46*%
G04 Gerber Fmt 4.6, Leading zero omitted, Abs format (unit mm)*
G04 Created by KiCad (PCBNEW 9.0.0) date 2025-03-11 10:13:07*
%MOMM*%
%LPD*%
G01*
G04 APERTURE LIST*
%ADD10C,0.100000*%
%ADD11C,0.120000*%
G04 APERTURE END LIST*
D10*
X21687217Y-35288665D02*
X21353884Y-35288665D01*
X21353884Y-35812475D02*
X21353884Y-34812475D01*
X21353884Y-34812475D02*
X21830074Y-34812475D01*
X22211027Y-35812475D02*
X22211027Y-35145808D01*
X22211027Y-35336284D02*
X22258646Y-35241046D01*
X22258646Y-35241046D02*
X22306265Y-35193427D01*
X22306265Y-35193427D02*
X22401503Y-35145808D01*
X22401503Y-35145808D02*
X22496741Y-35145808D01*
X22972932Y-35812475D02*
X22877694Y-35764856D01*
X22877694Y-35764856D02*
X22830075Y-35717236D01*
X22830075Y-35717236D02*
X22782456Y-35621998D01*
X22782456Y-35621998D02*
X22782456Y-35336284D01*
X22782456Y-35336284D02*
X22830075Y-35241046D01*
X22830075Y-35241046D02*
X22877694Y-35193427D01*
X22877694Y-35193427D02*
X22972932Y-35145808D01*
X22972932Y-35145808D02*
X23115789Y-35145808D01*
X23115789Y-35145808D02*
X23211027Y-35193427D01*
X23211027Y-35193427D02*
X23258646Y-35241046D01*
X23258646Y-35241046D02*
X23306265Y-35336284D01*
X23306265Y-35336284D02*
X23306265Y-35621998D01*
X23306265Y-35621998D02*
X23258646Y-35717236D01*
X23258646Y-35717236D02*
X23211027Y-35764856D01*
X23211027Y-35764856D02*
X23115789Y-35812475D01*
X23115789Y-35812475D02*
X22972932Y-35812475D01*
X23734837Y-35145808D02*
X23734837Y-35812475D01*
X23734837Y-35241046D02*
X23782456Y-35193427D01*
X23782456Y-35193427D02*
X23877694Y-35145808D01*
X23877694Y-35145808D02*
X24020551Y-35145808D01*
X24020551Y-35145808D02*
X24115789Y-35193427D01*
X24115789Y-35193427D02*
X24163408Y-35288665D01*
X24163408Y-35288665D02*
X24163408Y-35812475D01*
X24496742Y-35145808D02*
X24877694Y-35145808D01*
X24639599Y-34812475D02*
X24639599Y-35669617D01*
X24639599Y-35669617D02*
X24687218Y-35764856D01*
X24687218Y-35764856D02*
X24782456Y-35812475D01*
X24782456Y-35812475D02*
X24877694Y-35812475D01*
X25925313Y-34764856D02*
X25068171Y-36050570D01*
X21687217Y-36898609D02*
X21353884Y-36898609D01*
X21353884Y-37422419D02*
X21353884Y-36422419D01*
X21353884Y-36422419D02*
X21830074Y-36422419D01*
X22639598Y-37422419D02*
X22639598Y-36898609D01*
X22639598Y-36898609D02*
X22591979Y-36803371D01*
X22591979Y-36803371D02*
X22496741Y-36755752D01*
X22496741Y-36755752D02*
X22306265Y-36755752D01*
X22306265Y-36755752D02*
X22211027Y-36803371D01*
X22639598Y-37374800D02*
X22544360Y-37422419D01*
X22544360Y-37422419D02*
X22306265Y-37422419D01*
X22306265Y-37422419D02*
X22211027Y-37374800D01*
X22211027Y-37374800D02*
X22163408Y-37279561D01*
X22163408Y-37279561D02*
X22163408Y-37184323D01*
X22163408Y-37184323D02*
X22211027Y-37089085D01*
X22211027Y-37089085D02*
X22306265Y-37041466D01*
X22306265Y-37041466D02*
X22544360Y-37041466D01*
X22544360Y-37041466D02*
X22639598Y-36993847D01*
X23544360Y-37374800D02*
X23449122Y-37422419D01*
X23449122Y-37422419D02*
X23258646Y-37422419D01*
X23258646Y-37422419D02*
X23163408Y-37374800D01*
X23163408Y-37374800D02*
X23115789Y-37327180D01*
X23115789Y-37327180D02*
X23068170Y-37231942D01*
X23068170Y-37231942D02*
X23068170Y-36946228D01*
X23068170Y-36946228D02*
X23115789Y-36850990D01*
X23115789Y-36850990D02*
X23163408Y-36803371D01*
X23163408Y-36803371D02*
X23258646Y-36755752D01*
X23258646Y-36755752D02*
X23449122Y-36755752D01*
X23449122Y-36755752D02*
X23544360Y-36803371D01*
X23972932Y-37422419D02*
X23972932Y-36755752D01*
X23972932Y-36422419D02*
X23925313Y-36470038D01*
X23925313Y-36470038D02*
X23972932Y-36517657D01*
X23972932Y-36517657D02*
X24020551Y-36470038D01*
X24020551Y-36470038D02*
X23972932Y-36422419D01*
X23972932Y-36422419D02*
X23972932Y-36517657D01*
X24449122Y-36755752D02*
X24449122Y-37422419D01*
X24449122Y-36850990D02*
X24496741Y-36803371D01*
X24496741Y-36803371D02*
X24591979Y-36755752D01*
X24591979Y-36755752D02*
X24734836Y-36755752D01*
X24734836Y-36755752D02*
X24830074Y-36803371D01*
X24830074Y-36803371D02*
X24877693Y-36898609D01*
X24877693Y-36898609D02*
X24877693Y-37422419D01*
X25782455Y-36755752D02*
X25782455Y-37565276D01*
X25782455Y-37565276D02*
X25734836Y-37660514D01*
X25734836Y-37660514D02*
X25687217Y-37708133D01*
X25687217Y-37708133D02*
X25591979Y-37755752D01*
X25591979Y-37755752D02*
X25449122Y-37755752D01*
X25449122Y-37755752D02*
X25353884Y-37708133D01*
X25782455Y-37374800D02*
X25687217Y-37422419D01*
X25687217Y-37422419D02*
X25496741Y-37422419D01*
X25496741Y-37422419D02*
X25401503Y-37374800D01*
X25401503Y-37374800D02*
X25353884Y-37327180D01*
X25353884Y-37327180D02*
X25306265Y-37231942D01*
X25306265Y-37231942D02*
X25306265Y-36946228D01*
X25306265Y-36946228D02*
X25353884Y-36850990D01*
X25353884Y-36850990D02*
X25401503Y-36803371D01*
X25401503Y-36803371D02*
X25496741Y-36755752D01*
X25496741Y-36755752D02*
X25687217Y-36755752D01*
X25687217Y-36755752D02*
X25782455Y-36803371D01*
X27020551Y-37422419D02*
X27020551Y-36422419D01*
X27020551Y-36422419D02*
X27591979Y-37422419D01*
X27591979Y-37422419D02*
X27591979Y-36422419D01*
X28449122Y-37374800D02*
X28353884Y-37422419D01*
X28353884Y-37422419D02*
X28163408Y-37422419D01*
X28163408Y-37422419D02*
X28068170Y-37374800D01*
X28068170Y-37374800D02*
X28020551Y-37279561D01*
X28020551Y-37279561D02*
X28020551Y-36898609D01*
X28020551Y-36898609D02*
X28068170Y-36803371D01*
X28068170Y-36803371D02*
X28163408Y-36755752D01*
X28163408Y-36755752D02*
X28353884Y-36755752D01*
X28353884Y-36755752D02*
X28449122Y-36803371D01*
X28449122Y-36803371D02*
X28496741Y-36898609D01*
X28496741Y-36898609D02*
X28496741Y-36993847D01*
X28496741Y-36993847D02*
X28020551Y-37089085D01*
X29353884Y-37374800D02*
X29258646Y-37422419D01*
X29258646Y-37422419D02*
X29068170Y-37422419D01*
X29068170Y-37422419D02*
X28972932Y-37374800D01*
X28972932Y-37374800D02*
X28925313Y-37327180D01*
X28925313Y-37327180D02*
X28877694Y-37231942D01*
X28877694Y-37231942D02*
X28877694Y-36946228D01*
X28877694Y-36946228D02*
X28925313Y-36850990D01*
X28925313Y-36850990D02*
X28972932Y-36803371D01*
X28972932Y-36803371D02*
X29068170Y-36755752D01*
X29068170Y-36755752D02*
X29258646Y-36755752D01*
X29258646Y-36755752D02*
X29353884Y-36803371D01*
X29782456Y-37422419D02*
X29782456Y-36422419D01*
X29877694Y-37041466D02*
X30163408Y-37422419D01*
X30163408Y-36755752D02*
X29782456Y-37136704D01*
D11*
%TO.C,J2*%
X27400000Y-31655000D02*
X27400000Y-26455000D01*
X35080000Y-29055000D02*
X37680000Y-29055000D01*
X35080000Y-31655000D02*
X27400000Y-31655000D01*
X35080000Y-31655000D02*
X35080000Y-29055000D01*
X36350000Y-31655000D02*
X37680000Y-31655000D01*
X37680000Y-26455000D02*
X27400000Y-26455000D01*
X37680000Y-29055000D02*
X37680000Y-26455000D01*
X37680000Y-31655000D02*
X37680000Y-30325000D01*
%TD*%
M02*
