M48
; DRILL file {KiCad 9.0.0} date 2025-03-11T10:13:06-0700
; FORMAT={-:-/ absolute / inch / decimal}
; #@! TF.CreationDate,2025-03-11T10:13:06-07:00
; #@! TF.GenerationSoftware,Kicad,Pcbnew,9.0.0
; #@! TF.FileFunction,Plated,1,2,PTH
FMAT,2
INCH
; #@! TA.AperFunction,Plated,PTH,ComponentDrill
T1C0.0295
; #@! TA.AperFunction,Plated,PTH,ComponentDrill
T2C0.0394
%
G90
G05
T2
X1.1311Y-1.0939
X1.1311Y-1.1939
X1.2311Y-1.0939
X1.2311Y-1.1939
X1.3311Y-1.0939
X1.3311Y-1.1939
X1.4311Y-1.0939
X1.4311Y-1.1939
T1
G00X1.0039Y-0.8406
M15
G01X1.0039Y-0.8209
M16
G05
G00X1.0827Y-0.8406
M15
G01X1.0827Y-0.8209
M16
G05
G00X1.1614Y-0.8406
M15
G01X1.1614Y-0.8209
M16
G05
G00X1.2402Y-0.8406
M15
G01X1.2402Y-0.8209
M16
G05
G00X1.3189Y-0.8406
M15
G01X1.3189Y-0.8209
M16
G05
G00X1.3976Y-0.8406
M15
G01X1.3976Y-0.8209
M16
G05
G00X1.4764Y-0.8406
M15
G01X1.4764Y-0.8209
M16
G05
G00X1.5551Y-0.8406
M15
G01X1.5551Y-0.8209
M16
G05
M30
