%TF.GenerationSoftware,KiCad,Pcbnew,9.0.0*%
%TF.CreationDate,2025-03-11T10:13:07-07:00*%
%TF.ProjectId,360LPNeckfromBodyWithPinHeaders,3336304c-504e-4656-936b-66726f6d426f,rev?*%
%TF.SameCoordinates,Original*%
%TF.FileFunction,Copper,L1,Top*%
%TF.FilePolarity,Positive*%
%FSLAX46Y46*%
G04 Gerber Fmt 4.6, Leading zero omitted, Abs format (unit mm)*
G04 Created by KiCad (PCBNEW 9.0.0) date 2025-03-11 10:13:07*
%MOMM*%
%LPD*%
G01*
G04 APERTURE LIST*
%TA.AperFunction,ComponentPad*%
%ADD10R,1.500000X2.500000*%
%TD*%
%TA.AperFunction,ComponentPad*%
%ADD11O,1.500000X2.500000*%
%TD*%
%TA.AperFunction,ComponentPad*%
%ADD12R,1.700000X1.700000*%
%TD*%
%TA.AperFunction,ComponentPad*%
%ADD13O,1.700000X1.700000*%
%TD*%
%TA.AperFunction,Conductor*%
%ADD14C,0.350000*%
%TD*%
G04 APERTURE END LIST*
D10*
%TO.P,J1,1,Pin_1*%
%TO.N,Net-(J1-Pin_1)*%
X39500000Y-21100000D03*
D11*
%TO.P,J1,2,Pin_2*%
%TO.N,Net-(J1-Pin_2)*%
X37500000Y-21100000D03*
%TO.P,J1,3,Pin_3*%
%TO.N,Net-(J1-Pin_3)*%
X35500000Y-21100000D03*
%TO.P,J1,4,Pin_4*%
%TO.N,Net-(J1-Pin_4)*%
X33500000Y-21100000D03*
%TO.P,J1,5,Pin_5*%
%TO.N,Net-(J1-Pin_5)*%
X31500000Y-21100000D03*
%TO.P,J1,6,Pin_6*%
%TO.N,Net-(J1-Pin_6)*%
X29500000Y-21100000D03*
%TO.P,J1,7,Pin_7*%
%TO.N,Net-(J1-Pin_7)*%
X27500000Y-21100000D03*
%TO.P,J1,8,Pin_8*%
%TO.N,Net-(J1-Pin_8)*%
X25500000Y-21100000D03*
%TD*%
D12*
%TO.P,J2,1,Pin_1*%
%TO.N,Net-(J1-Pin_1)*%
X36350000Y-30325000D03*
D13*
%TO.P,J2,2,Pin_2*%
%TO.N,Net-(J1-Pin_2)*%
X36350000Y-27785000D03*
%TO.P,J2,3,Pin_3*%
%TO.N,Net-(J1-Pin_3)*%
X33810000Y-30325000D03*
%TO.P,J2,4,Pin_4*%
%TO.N,Net-(J1-Pin_4)*%
X33810000Y-27785000D03*
%TO.P,J2,5,Pin_5*%
%TO.N,Net-(J1-Pin_5)*%
X31270000Y-30325000D03*
%TO.P,J2,6,Pin_6*%
%TO.N,Net-(J1-Pin_6)*%
X31270000Y-27785000D03*
%TO.P,J2,7,Pin_7*%
%TO.N,Net-(J1-Pin_7)*%
X28730000Y-30325000D03*
%TO.P,J2,8,Pin_8*%
%TO.N,Net-(J1-Pin_8)*%
X28730000Y-27785000D03*
%TD*%
D14*
%TO.N,Net-(J1-Pin_5)*%
X32540000Y-25140000D02*
X32540000Y-29055000D01*
X32540000Y-29055000D02*
X31270000Y-30325000D01*
X31500000Y-24100000D02*
X32540000Y-25140000D01*
X31500000Y-21100000D02*
X31500000Y-24100000D01*
%TO.N,Net-(J1-Pin_1)*%
X38525000Y-30325000D02*
X36350000Y-30325000D01*
X39500000Y-21100000D02*
X39500000Y-29350000D01*
X39500000Y-29350000D02*
X38525000Y-30325000D01*
%TO.N,Net-(J1-Pin_3)*%
X35080000Y-29055000D02*
X33810000Y-30325000D01*
X35500000Y-21100000D02*
X35080000Y-21520000D01*
X35080000Y-21520000D02*
X35080000Y-29055000D01*
%TO.N,Net-(J1-Pin_7)*%
X27420000Y-21180000D02*
X27420000Y-29015000D01*
X27500000Y-21100000D02*
X27420000Y-21180000D01*
X27420000Y-29015000D02*
X28730000Y-30325000D01*
%TD*%
M02*
